<svg version="1.1" id="Layer_1" xmlns="http://www.w3.org/2000/svg" xmlns:xlink="http://www.w3.org/1999/xlink" x="0px" y="0px"
	 width="50px" height="50px" viewBox="0 0 50 50" xml:space="preserve">
	<g>
		<path d="M24.7,37.4c-15,0-21.9-11.1-22.1-11.6l-0.4-0.6l0.4-0.6C2.8,24.1,9.7,13,24.7,13
		c14.9,0,21.8,11.1,22.1,11.6l0.4,0.6l-0.4,0.6C46.5,26.3,39.6,37.4,24.7,37.4z M5,25.2c1.6,2.2,8,9.8,19.7,9.8
		c11.6,0,18-7.6,19.7-9.8c-1.6-2.2-8-9.8-19.7-9.8C13.1,15.4,6.7,23,5,25.2z"/>
		<circle cx="24.7" cy="25.2" r="6.6"/>
	</g>
</svg>
